<svg width="50" height="50" viewBox="0 0 50 50" fill="none" xmlns="http://www.w3.org/2000/svg">
<rect width="50" height="50" rx="13" fill="#0077FF"/>
<path d="M35.4986 19.8137C35.6497 19.345 35.4986 19 34.7716 19H32.3661C31.7535 19 31.4717 19.2962 31.3206 19.6262C31.3206 19.6262 30.0954 22.3675 28.3637 24.145C27.8042 24.6588 27.5469 24.8238 27.2406 24.8238C27.0895 24.8238 26.8567 24.6588 26.8567 24.19V19.8137C26.8567 19.2512 26.6852 19 26.1787 19H22.3969C22.013 19 21.7843 19.2625 21.7843 19.5063C21.7843 20.0388 22.6501 20.1625 22.7399 21.6625V24.9175C22.7399 25.63 22.6011 25.7613 22.2948 25.7613C21.478 25.7613 19.4931 23.0088 18.3169 19.8588C18.08 19.2475 17.8472 19 17.2305 19H14.825C14.1389 19 14 19.2962 14 19.6262C14 20.2112 14.8168 23.1175 17.8023 26.9575C19.7912 29.5788 22.5929 31 25.1414 31C26.6729 31 26.8608 30.685 26.8608 30.1413C26.8608 27.6363 26.7219 27.4 27.4897 27.4C27.845 27.4 28.4577 27.565 29.8871 28.8288C31.5207 30.3288 31.7903 31 32.7051 31H35.1106C35.7967 31 36.1439 30.685 35.9438 30.0625C35.4864 28.7538 32.3947 26.0613 32.2558 25.8813C31.9005 25.4613 32.0026 25.2738 32.2558 24.8988C32.2599 24.895 35.1964 21.1 35.4986 19.8137Z" fill="white"/>
</svg>
